<svg id="Camada_1" data-name="Camada 1" xmlns="http://www.w3.org/2000/svg" viewBox="0 0 149.65 46.94"><defs><style>.cls-1{fill:#cf8447;}.cls-2{fill:#4a494a;}</style></defs><title>starsPrancheta 1</title><polygon class="cls-1" points="28.94 36.46 20.44 32.06 11.98 36.54 13.54 27.1 6.67 20.45 16.13 19.01 20.33 10.41 24.62 18.96 34.1 20.31 27.29 27.03 28.94 36.46"/><polygon class="cls-1" points="56.37 36.46 47.87 32.06 39.42 36.54 40.97 27.1 34.1 20.45 43.56 19.01 47.76 10.41 52.05 18.96 61.53 20.31 54.72 27.03 56.37 36.46"/><polygon class="cls-1" points="83.8 36.46 75.3 32.06 66.85 36.54 68.4 27.1 61.53 20.45 70.99 19.01 75.2 10.41 79.49 18.96 88.96 20.31 82.15 27.03 83.8 36.46"/><polygon class="cls-1" points="111.23 36.46 102.74 32.06 94.28 36.54 95.84 27.1 88.96 20.45 98.42 19.01 102.63 10.41 106.92 18.96 116.39 20.31 109.58 27.03 111.23 36.46"/><polygon class="cls-2" points="138.67 36.46 130.17 32.06 121.71 36.54 123.27 27.1 116.39 20.45 125.86 19.01 130.06 10.41 134.35 18.96 143.83 20.31 137.02 27.03 138.67 36.46"/></svg>